PathFileType	4	(X/Y/Z)	Walk7.trc
DataRate	CameraRate	NumFrames	NumMarkers	Units	OrigDataRate	OrigDataStartFrame	OrigNumFrames
200.000000	200.000000	9	59	mm	200.000000	373	590
Frame#	Times		LFHD		RFHD		CLAV		STRN		LASI		RASI		RACR1		RUA1		RElbow		RFA1		RWRR		RWRU		RCAR		LACR1		LUA1		LElbow		LFA1		LWRR		LCAR		RTH3		RTH2		RTB1		RTB2		RTB4		LTH1		LTH3		LTH2		LTH4		LLFC		LTB1		LTB2		LTB4		LMT1		LToe		LWRU		LMT5		LTB3		RTB3		LMFC		RMT1		RMMAL		RElbowM		RLFC		RToe		RBHD		RTH4		RTH1		RCAL		RBack		RMFC		RPSI		LLMAL		C7		LPSI		T10		LMMAL		LBHD		LCAL		LElbowM
			X1	Y1	Z1	X2	Y2	Z2	X3	Y3	Z3	X4	Y4	Z4	X5	Y5	Z5	X6	Y6	Z6	X7	Y7	Z7	X8	Y8	Z8	X9	Y9	Z9	X10	Y10	Z10	X11	Y11	Z11	X12	Y12	Z12	X13	Y13	Z13	X14	Y14	Z14	X15	Y15	Z15	X16	Y16	Z16	X17	Y17	Z17	X18	Y18	Z18	X19	Y19	Z19	X20	Y20	Z20	X21	Y21	Z21	X22	Y22	Z22	X23	Y23	Z23	X24	Y24	Z24	X25	Y25	Z25	X26	Y26	Z26	X27	Y27	Z27	X28	Y28	Z28	X29	Y29	Z29	X30	Y30	Z30	X31	Y31	Z31	X32	Y32	Z32	X33	Y33	Z33	X34	Y34	Z34	X35	Y35	Z35	X36	Y36	Z36	X37	Y37	Z37	X38	Y38	Z38	X39	Y39	Z39	X40	Y40	Z40	X41	Y41	Z41	X42	Y42	Z42	X43	Y43	Z43	X44	Y44	Z44	X45	Y45	Z45	X46	Y46	Z46	X47	Y47	Z47	X48	Y48	Z48	X49	Y49	Z49	X50	Y50	Z50	X51	Y51	Z51	X52	Y52	Z52	X53	Y53	Z53	X54	Y54	Z54	X55	Y55	Z55	X56	Y56	Z56	X57	Y57	Z57	X58	Y58	Z58	X59	Y59	Z59

373	1.865	308.62	1629.8	68.329	309.91	1626.5	-30.885	316.57	1373.3	27.834	388.96	1219.2	17.845	237.8	959.88	-167.85	309.08	943.71	189.69	202.87	1451.7	200.92	150.49	1290.7	315.77	131.13	1141.4	363.82	132.32	985.69	380.19	130.24	863.44	312.86	122.04	871.63	393.91	133.2	779.49	362.6	192.02	1434.4	-151.6	196.82	1264.6	-246.33	239.35	1110.9	-307.95	327.02	1003.3	-317.02	431.91	927.39	-254.85	491.57	867.02	-287.34	364.45	614.38	204.79	366.8	719.48	198.5	479.63	402.25	122.78	470.59	311.36	175.28	486.89	315.88	116.15	124.83	730.75	-192.02	99.814	562.13	-175.53	169.96	639.83	-173.08	111.89	647.59	-183.41	59.699	483.89	-170.92	57.964	339.36	-107.06	-28.1	289.44	-136.04	3.3447	278.9	-83.443	-123.1	33.506	-37.454	-80.857	24.003	-80.345	404.8	887.99	-311.84	-191.26	41.19	-105.44	-58.628	221.23	-62.64	493.53	230.24	109.58	96.635	462.39	-18.245	610.66	47.942	85.683	476.18	89.168	53.915	74.22	1079.8	264.08	394.84	505.59	199.57	648.46	63.959	118.29	161.5	1545.1	-41.612	320.99	687.43	218.26	275.45	760.22	230.67	389.54	41.91	90.863	57.05	1332.5	143.69	374.86	501.2	46.754	22.445	991.98	82.836	-228.49	154.61	-50.291	118.96	1448.1	32.33	16.003	1007.2	-0.87866	58.127	1131.7	38.513	-193.88	148.1	32.355	174.67	1556.2	106.54	-278.64	162.98	11.722	201.53	1028	-219.68
374	1.87	315.83	1629.8	69.947	316.97	1626.6	-29.282	323.7	1373.4	29.22	396.07	1219.4	18.969	245.44	960.16	-166.37	316.33	944.33	190.33	210.11	1451.5	202.46	158.26	1290	317.01	139.3	1140.7	364.82	140.77	984.94	381.02	138.81	862.78	313.55	130.78	870.84	394.63	142.28	778.86	363.25	199.19	1434.9	-150.08	202.96	1265.1	-244.99	244.08	1111	-306.62	330.97	1002.9	-315.9	435.45	926.16	-253.98	494.61	865.38	-286.61	371.72	615.03	205.89	373.86	720.13	199.49	485.64	401.64	123.31	475.39	310.77	175.65	491.67	315.19	116.49	132.96	730.79	-191.9	108.65	561.99	-176.39	178.45	639.98	-173.35	120.4	647.56	-183.8	68.663	483.89	-172.22	65.542	339.49	-108.63	-21.32	290.93	-137.39	10.159	279.78	-84.938	-122.35	33.408	-37.059	-81.156	23.785	-80.266	407.94	886.95	-310.9	-189.55	43.026	-105.22	-52.539	222.92	-64.053	497.07	229.48	109.74	105.93	461.72	-19.488	611.53	45.331	85.285	477.39	88.754	53.829	82.314	1079.1	265.17	402	505.75	200.46	649.82	60.742	117.69	168.51	1545.4	-39.884	328.13	688.02	219.25	282.43	760.76	231.55	390.19	42.562	91.003	64.229	1332.5	145.14	382.87	502.51	47.252	29.505	991.97	83.487	-223.27	158.74	-51.19	126.17	1448.4	33.92	23.088	1006.9	-0.55355	65.078	1131.8	39.173	-188.39	151.6	31.273	181.95	1556.2	108.25	-272.49	168.58	10.943	206.26	1028.4	-218.06
375	1.875	323.03	1629.9	71.542	324.02	1626.8	-27.701	330.78	1373.6	30.57	403.11	1219.7	20.063	253.05	960.5	-164.91	323.55	945.04	191.05	217.31	1451.3	203.96	166.04	1289.4	318.23	147.5	1140.1	365.79	149.3	984.29	381.84	147.5	862.22	314.24	139.63	870.16	395.35	151.49	778.34	363.9	206.33	1435.5	-148.58	209.09	1265.6	-243.68	248.76	1111.2	-305.29	334.81	1002.5	-314.78	438.84	924.94	-253.1	497.47	863.7	-285.89	378.73	615.54	206.95	380.8	720.65	200.53	491.46	401	123.76	480.01	310.15	175.92	496.27	314.48	116.75	141.25	730.89	-191.78	117.73	561.88	-177.32	187.14	640.2	-173.63	129.11	647.58	-184.23	77.91	483.92	-173.6	73.428	339.7	-110.28	-14.203	292.49	-138.83	17.327	280.72	-86.54	-121.39	33.397	-36.687	-81.317	23.521	-80.237	410.92	885.94	-309.98	-187.53	45.009	-105.02	-46.082	224.66	-65.571	500.44	228.72	109.78	115.53	461.07	-20.804	612.29	42.927	84.8	478.47	88.36	53.653	90.455	1078.4	266.23	408.93	505.78	201.28	651.06	57.781	116.99	175.49	1545.7	-38.186	335.1	688.51	220.22	289.33	761.27	232.44	390.78	43.166	91.087	71.372	1332.5	146.58	390.87	503.73	47.638	36.531	991.99	84.114	-217.65	162.91	-52.171	133.33	1448.7	35.469	30.163	1006.7	-0.24777	72	1132	39.848	-182.46	155.14	30.103	189.2	1556.3	109.93	-265.87	174.24	10.084	210.82	1028.9	-216.49
376	1.88	330.21	1630	73.11	331.05	1627.1	-26.147	337.81	1373.8	31.883	410.08	1220	21.128	260.62	960.9	-163.46	330.71	945.84	191.86	224.48	1451.2	205.41	173.83	1288.9	319.42	155.74	1139.5	366.74	157.91	983.74	382.65	156.31	861.77	314.93	148.57	869.59	396.06	160.84	777.92	364.55	213.42	1436.1	-147.11	215.2	1266.2	-242.39	253.37	1111.5	-303.96	338.54	1002.1	-313.67	442.09	923.71	-252.23	500.15	861.99	-285.17	385.46	615.89	207.96	387.6	721.01	201.61	497.07	400.32	124.12	484.45	309.49	176.09	500.68	313.76	116.89	149.67	731.05	-191.68	127.04	561.83	-178.29	196	640.5	-173.94	138	647.65	-184.69	87.426	483.99	-175.04	81.616	339.97	-112.02	-6.749	294.12	-140.35	24.845	281.72	-88.228	-120.2	33.502	-36.36	-81.286	23.212	-80.272	413.75	884.94	-309.07	-185.17	47.145	-104.87	-39.254	226.44	-67.177	503.63	227.96	109.69	125.43	460.44	-22.179	612.94	40.719	84.243	479.44	87.973	53.386	98.634	1077.9	267.27	415.6	505.7	202.03	652.17	55.059	116.2	182.45	1546	-36.523	341.87	688.88	221.16	296.11	761.69	233.34	391.31	43.722	91.112	78.477	1332.7	147.99	398.79	504.81	47.923	43.521	992.04	84.726	-211.61	167.1	-53.227	140.43	1449.1	36.978	37.228	1006.5	0.058357	78.89	1132.2	40.548	-176.12	158.69	28.852	196.41	1556.4	111.58	-258.79	179.91	9.1515	215.18	1029.5	-214.98
377	1.885	337.36	1630.2	74.644	338.05	1627.4	-24.625	344.8	1374	33.159	416.97	1220.3	22.161	268.16	961.33	-162.04	337.81	946.71	192.76	231.62	1451.2	206.83	181.61	1288.5	320.59	163.99	1139.1	367.65	166.59	983.31	383.45	165.23	861.42	315.61	157.62	869.12	396.76	170.3	777.61	365.2	220.46	1436.7	-145.65	221.3	1266.9	-241.11	257.94	1111.9	-302.63	342.18	1001.8	-312.58	445.21	922.47	-251.37	502.67	860.25	-284.46	391.92	616.07	208.88	394.25	721.19	202.74	502.45	399.6	124.36	488.73	308.78	176.14	504.89	313.01	116.91	158.23	731.25	-191.58	136.55	561.82	-179.3	205.03	640.88	-174.25	147.05	647.76	-185.18	97.196	484.09	-176.52	90.099	340.3	-113.8	1.0408	295.8	-141.92	32.705	282.78	-89.979	-118.7	33.749	-36.103	-81.001	22.861	-80.387	416.45	883.97	-308.18	-182.43	49.439	-104.76	-32.061	228.27	-68.849	506.66	227.19	109.48	135.61	459.84	-23.596	613.5	38.695	83.629	480.3	87.582	53.032	106.84	1077.4	268.3	422.01	505.51	202.7	653.18	52.558	115.35	189.37	1546.5	-34.897	348.42	689.11	222.05	302.76	762.01	234.22	391.8	44.231	91.074	85.543	1332.8	149.38	406.55	505.73	48.123	50.471	992.13	85.334	-205.16	171.3	-54.351	147.47	1449.5	38.447	44.279	1006.3	0.3838	85.746	1132.5	41.278	-169.36	162.24	27.53	203.58	1556.6	113.19	-251.27	185.55	8.1527	219.34	1030.2	-213.52
378	1.89	344.47	1630.4	76.137	345.02	1627.8	-23.142	351.73	1374.3	34.397	423.78	1220.7	23.164	275.64	961.81	-160.64	344.84	947.63	193.74	238.71	1451.3	208.2	189.39	1288.2	321.74	172.27	1138.7	368.55	175.33	982.99	384.23	174.27	861.19	316.29	166.75	868.76	397.45	179.89	777.42	365.84	227.41	1437.4	-144.23	227.36	1267.6	-239.87	262.45	1112.3	-301.3	345.73	1001.5	-311.49	448.2	921.24	-250.52	505.04	858.48	-283.74	398.09	616.05	209.71	400.74	721.2	203.89	507.61	398.84	124.46	492.84	308.05	176.07	508.89	312.24	116.8	166.92	731.51	-191.49	146.27	561.86	-180.33	214.22	641.33	-174.56	156.27	647.93	-185.68	107.2	484.24	-178.03	98.871	340.7	-115.6	9.1643	297.52	-143.53	40.9	283.89	-91.763	-116.85	34.168	-35.94	-80.391	22.475	-80.598	419.02	883.03	-307.31	-179.27	51.897	-104.72	-24.508	230.14	-70.562	509.5	226.41	109.14	146.05	459.29	-25.033	613.98	36.845	82.978	481.07	87.181	52.601	115.08	1077	269.31	428.16	505.22	203.26	654.1	50.264	114.47	196.25	1547	-33.312	354.76	689.17	222.86	309.27	762.2	235.08	392.23	44.694	90.978	92.571	1333.1	150.76	414.06	506.45	48.254	57.377	992.26	85.946	-198.31	175.49	-55.531	154.42	1450	39.878	51.311	1006.2	0.74554	92.565	1132.8	42.042	-162.21	165.78	26.152	210.7	1556.9	114.75	-243.34	191.15	7.0967	223.33	1031	-212.13
379	1.895	351.55	1630.7	77.585	351.96	1628.2	-21.702	358.61	1374.7	35.596	430.53	1221.1	24.136	283.09	962.33	-159.27	351.8	948.57	194.79	245.75	1451.5	209.54	197.16	1288	322.87	180.57	1138.5	369.43	184.12	982.76	385.01	183.41	861.06	316.97	175.97	868.51	398.12	189.58	777.33	366.47	234.29	1438.2	-142.84	233.38	1268.3	-238.64	266.92	1112.7	-299.98	349.19	1001.3	-310.42	451.06	920.01	-249.67	507.25	856.69	-283.03	404.02	615.87	210.44	407.07	721.03	205.04	512.52	398.05	124.43	496.8	307.29	175.88	512.68	311.45	116.57	175.71	731.82	-191.39	156.16	561.95	-181.36	223.53	641.86	-174.87	165.61	648.14	-186.18	117.43	484.41	-179.53	107.92	341.16	-117.4	17.618	299.27	-145.14	49.417	285.05	-93.547	-114.57	34.785	-35.898	-79.38	22.064	-80.919	421.46	882.11	-306.47	-175.64	54.521	-104.76	-16.609	232.03	-72.285	512.19	225.62	108.68	156.73	458.8	-26.467	614.4	35.163	82.305	481.77	86.767	52.106	123.32	1076.7	270.3	434.06	504.85	203.73	654.93	48.164	113.57	203.09	1547.6	-31.771	360.88	689.09	223.59	315.62	762.26	235.9	392.61	45.114	90.83	99.559	1333.4	152.12	421.26	506.96	48.331	64.235	992.45	86.572	-191.06	179.65	-56.754	161.3	1450.5	41.272	58.318	1006.1	1.1575	99.346	1133.2	42.841	-154.68	169.3	24.736	217.77	1557.2	116.27	-235.03	196.67	5.9943	227.16	1031.8	-210.79
380	1.9	358.58	1631.1	78.983	358.85	1628.6	-20.311	365.44	1375.1	36.756	437.21	1221.5	25.078	290.47	962.89	-157.94	358.67	949.54	195.91	252.76	1451.8	210.83	204.92	1287.9	323.98	188.88	1138.3	370.29	192.97	982.65	385.77	192.65	861.05	317.63	185.27	868.36	398.78	199.38	777.36	367.09	241.09	1439	-141.49	239.34	1269.1	-237.45	271.33	1113.2	-298.67	352.57	1001.1	-309.37	453.81	918.78	-248.84	509.31	854.88	-282.32	409.71	615.54	211.06	413.24	720.72	206.17	517.2	397.22	124.27	500.6	306.51	175.6	516.28	310.64	116.23	184.59	732.17	-191.28	166.22	562.1	-182.39	232.97	642.46	-175.16	175.08	648.39	-186.68	127.86	484.63	-181.01	117.25	341.7	-119.14	26.397	301.04	-146.74	58.243	286.26	-95.297	-111.81	35.623	-36.003	-77.889	21.645	-81.365	423.79	881.21	-305.65	-171.51	57.315	-104.91	-8.3766	233.95	-73.986	514.71	224.83	108.14	167.61	458.41	-27.871	614.77	33.641	81.626	482.39	86.341	51.563	131.58	1076.5	271.29	439.72	504.42	204.11	655.69	46.248	112.67	209.89	1548.2	-30.277	366.8	688.86	224.23	321.8	762.19	236.68	392.95	45.492	90.638	106.51	1333.8	153.47	428.07	507.28	48.369	71.041	992.7	87.219	-183.42	183.76	-58.005	168.09	1450.9	42.629	65.289	1006.1	1.63	106.08	1133.6	43.675	-146.8	172.8	23.304	224.8	1557.6	117.75	-226.37	202.07	4.8584	230.88	1032.7	-209.5
381	1.905	365.56	1631.4	80.325	365.71	1629.1	-18.972	372.21	1375.6	37.878	443.84	1222	25.991	297.8	963.48	-156.64	365.46	950.5	197.09	259.72	1452.2	212.08	212.66	1287.9	325.07	197.21	1138.3	371.14	201.86	982.63	386.52	201.99	861.13	318.29	194.64	868.3	399.43	209.27	777.49	367.69	247.8	1439.8	-140.18	245.24	1269.9	-236.28	275.7	1113.8	-297.38	355.88	1000.9	-308.34	456.46	917.55	-248.03	511.25	853.05	-281.61	415.2	615.09	211.57	419.25	720.29	207.27	521.65	396.37	123.99	504.25	305.73	175.23	519.68	309.81	115.79	193.55	732.58	-191.17	176.42	562.3	-183.38	242.51	643.14	-175.43	184.66	648.7	-187.15	138.49	484.88	-182.45	126.84	342.29	-120.81	35.496	302.8	-148.3	67.364	287.51	-96.979	-108.5	36.696	-36.274	-75.838	21.24	-81.945	426.02	880.34	-304.86	-166.84	60.277	-105.17	0.17159	235.89	-75.631	517.09	224.04	107.53	178.65	458.11	-29.223	615.08	32.272	80.953	482.95	85.907	50.987	139.83	1076.3	272.27	445.15	503.96	204.39	656.39	44.504	111.79	216.63	1548.9	-28.832	372.53	688.53	224.77	327.83	762.02	237.4	393.24	45.834	90.411	113.41	1334.2	154.81	434.47	507.41	48.38	77.793	993.02	87.891	-175.42	187.81	-59.266	174.8	1451.5	43.951	72.217	1006.1	2.169	112.78	1134.1	44.539	-138.6	176.26	21.878	231.77	1558.1	119.17	-217.41	207.33	3.7039	234.52	1033.6	-208.23
